<svg xmlns="http://www.w3.org/2000/svg"><symbol id="brohn-plan" viewBox="0 0 24 24"><g fill="none" stroke="currentColor" stroke-width="1.7" stroke-linecap="round" stroke-linejoin="round"><rect x="4" y="4" width="16" height="16" rx="3"/><path d="M8 8h8M8 12h5M8 16h3"/></g></symbol><symbol id="brohn-questions" viewBox="0 0 24 24"><g fill="none" stroke="currentColor" stroke-width="1.7" stroke-linecap="round" stroke-linejoin="round"><path d="M5 4h14a2 2 0 0 1 2 2v10a2 2 0 0 1-2 2h-8l-5 3v-3H5a2 2 0 0 1-2-2V6a2 2 0 0 1 2-2Z"/><path d="M9 8a3 3 0 0 1 6 0c0 2-3 2-3 4M12 15h.01"/></g></symbol><symbol id="brohn-collect" viewBox="0 0 24 24"><g fill="none" stroke="currentColor" stroke-width="1.7" stroke-linecap="round" stroke-linejoin="round"><circle cx="12" cy="12" r="3"/><path d="M7 4a10 10 0 0 0 0 16M17 4a10 10 0 0 1 0 16M9 7a6 6 0 0 0 0 10M15 7a6 6 0 0 1 0 10"/></g></symbol><symbol id="brohn-review" viewBox="0 0 24 24"><g fill="none" stroke="currentColor" stroke-width="1.7" stroke-linecap="round" stroke-linejoin="round"><circle cx="10" cy="10" r="6"/><path d="m15 15 6 6M7 10l2 2 4-4"/></g></symbol><symbol id="brohn-results" viewBox="0 0 24 24"><g fill="none" stroke="currentColor" stroke-width="1.7" stroke-linecap="round" stroke-linejoin="round"><path d="M4 3v17h17M8 15v-5M13 15V6M18 15v-7"/></g></symbol><symbol id="brohn-eye" viewBox="0 0 24 24"><g fill="none" stroke="currentColor" stroke-width="1.7" stroke-linecap="round" stroke-linejoin="round"><path d="M2 12s4-7 10-7 10 7 10 7-4 7-10 7S2 12 2 12Z"/><circle cx="12" cy="12" r="3"/></g></symbol><symbol id="brohn-eeg" viewBox="0 0 24 24"><g fill="none" stroke="currentColor" stroke-width="1.7" stroke-linecap="round" stroke-linejoin="round"><path d="M8 20v-3a7 7 0 1 1 10-6l3 4h-4v5M6 11h3l2-5 3 9 2-4h2"/></g></symbol><symbol id="brohn-eda" viewBox="0 0 24 24"><g fill="none" stroke="currentColor" stroke-width="1.7" stroke-linecap="round" stroke-linejoin="round"><path d="M3 18h18M4 14h4l2-8 3 10 2-6 2 4h3"/></g></symbol><symbol id="brohn-heart" viewBox="0 0 24 24"><g fill="none" stroke="currentColor" stroke-width="1.7" stroke-linecap="round" stroke-linejoin="round"><path d="M12 20 4 12C-1 6 6 1 12 7c6-6 13-1 8 5l-8 8Z"/><path d="M5 11h4l2-3 2 6 2-3h4"/></g></symbol><symbol id="brohn-breath" viewBox="0 0 24 24"><g fill="none" stroke="currentColor" stroke-width="1.7" stroke-linecap="round" stroke-linejoin="round"><path d="M3 9h11c6 0 6-7 1-6M3 13h16c4 0 4 6 0 6M3 17h7c4 0 4 5 0 5"/></g></symbol><symbol id="brohn-emg" viewBox="0 0 24 24"><g fill="none" stroke="currentColor" stroke-width="1.7" stroke-linecap="round" stroke-linejoin="round"><path d="M3 17h4l3-10 3 10 3-10 2 6h3M4 4h16M4 21h16"/></g></symbol><symbol id="brohn-camera" viewBox="0 0 24 24"><g fill="none" stroke="currentColor" stroke-width="1.7" stroke-linecap="round" stroke-linejoin="round"><rect x="3" y="6" width="18" height="14" rx="3"/><path d="m7 6 2-3h6l2 3"/><circle cx="12" cy="13" r="4"/></g></symbol><symbol id="brohn-face" viewBox="0 0 24 24"><g fill="none" stroke="currentColor" stroke-width="1.7" stroke-linecap="round" stroke-linejoin="round"><path d="M5 4h14v9a7 7 0 0 1-14 0V4Z"/><path d="M8 9h.01M16 9h.01M12 10v3h-1M9 16q3 2 6 0"/></g></symbol><symbol id="brohn-motion" viewBox="0 0 24 24"><g fill="none" stroke="currentColor" stroke-width="1.7" stroke-linecap="round" stroke-linejoin="round"><circle cx="14" cy="4" r="2"/><path d="m7 10 5-3 4 5h5M12 7l-2 7-5 6M10 14l6 2 2 5M3 7h4M2 12h3"/></g></symbol><symbol id="brohn-audio" viewBox="0 0 24 24"><g fill="none" stroke="currentColor" stroke-width="1.7" stroke-linecap="round" stroke-linejoin="round"><rect x="9" y="3" width="6" height="12" rx="3"/><path d="M5 11a7 7 0 0 0 14 0M12 18v3M8 21h8"/></g></symbol><symbol id="brohn-implicit" viewBox="0 0 24 24"><g fill="none" stroke="currentColor" stroke-width="1.7" stroke-linecap="round" stroke-linejoin="round"><path d="m13 3-8 11h7l-1 7 8-11h-7l1-7Z"/></g></symbol><symbol id="brohn-aoi" viewBox="0 0 24 24"><g fill="none" stroke="currentColor" stroke-width="1.7" stroke-linecap="round" stroke-linejoin="round"><path d="M8 3H3v5M16 3h5v5M21 16v5h-5M3 16v5h5"/><rect x="7" y="7" width="10" height="10" rx="2"/></g></symbol><symbol id="brohn-control" viewBox="0 0 24 24"><g fill="none" stroke="currentColor" stroke-width="1.7" stroke-linecap="round" stroke-linejoin="round"><path d="M12 3v18M4 6h16M6 6l-4 8h8L6 6ZM18 6l-4 8h8l-4-8ZM8 21h8"/></g></symbol><symbol id="brohn-clock" viewBox="0 0 24 24"><g fill="none" stroke="currentColor" stroke-width="1.7" stroke-linecap="round" stroke-linejoin="round"><circle cx="12" cy="12" r="9"/><path d="M12 7v5l4 2"/></g></symbol><symbol id="brohn-link" viewBox="0 0 24 24"><g fill="none" stroke="currentColor" stroke-width="1.7" stroke-linecap="round" stroke-linejoin="round"><path d="m10 14 4-4M8 16l-1 1a4 4 0 0 1-6-6l5-5a4 4 0 0 1 6 0M16 8l1-1a4 4 0 0 1 6 6l-5 5a4 4 0 0 1-6 0"/></g></symbol><symbol id="brohn-check" viewBox="0 0 24 24"><g fill="none" stroke="currentColor" stroke-width="1.7" stroke-linecap="round" stroke-linejoin="round"><path d="m5 12 4 4L19 6"/></g></symbol><symbol id="brohn-warning" viewBox="0 0 24 24"><g fill="none" stroke="currentColor" stroke-width="1.7" stroke-linecap="round" stroke-linejoin="round"><path d="m12 3 10 18H2L12 3Z"/><path d="M12 9v5M12 17h.01"/></g></symbol><symbol id="brohn-info" viewBox="0 0 24 24"><g fill="none" stroke="currentColor" stroke-width="1.7" stroke-linecap="round" stroke-linejoin="round"><circle cx="12" cy="12" r="9"/><path d="M12 11v6M12 7h.01"/></g></symbol><symbol id="brohn-upload" viewBox="0 0 24 24"><g fill="none" stroke="currentColor" stroke-width="1.7" stroke-linecap="round" stroke-linejoin="round"><path d="M12 16V3M7 8l5-5 5 5M4 16v5h16v-5"/></g></symbol><symbol id="brohn-download" viewBox="0 0 24 24"><g fill="none" stroke="currentColor" stroke-width="1.7" stroke-linecap="round" stroke-linejoin="round"><path d="M12 3v13M7 11l5 5 5-5M4 16v5h16v-5"/></g></symbol><symbol id="brohn-play" viewBox="0 0 24 24"><g fill="none" stroke="currentColor" stroke-width="1.7" stroke-linecap="round" stroke-linejoin="round"><path d="m8 4 12 8-12 8V4Z"/></g></symbol><symbol id="brohn-pause" viewBox="0 0 24 24"><g fill="none" stroke="currentColor" stroke-width="1.7" stroke-linecap="round" stroke-linejoin="round"><path d="M8 4v16M16 4v16"/></g></symbol><symbol id="brohn-undo" viewBox="0 0 24 24"><g fill="none" stroke="currentColor" stroke-width="1.7" stroke-linecap="round" stroke-linejoin="round"><path d="m7 4-5 5 5 5M2 9h12a6 6 0 0 1 0 12h-3"/></g></symbol><symbol id="brohn-settings" viewBox="0 0 24 24"><g fill="none" stroke="currentColor" stroke-width="1.7" stroke-linecap="round" stroke-linejoin="round"><path d="M4 6h16M4 12h16M4 18h16"/><circle cx="8" cy="6" r="2"/><circle cx="16" cy="12" r="2"/><circle cx="10" cy="18" r="2"/></g></symbol><symbol id="brohn-study" viewBox="0 0 24 24"><g fill="none" stroke="currentColor" stroke-width="1.7" stroke-linecap="round" stroke-linejoin="round"><rect x="4" y="3" width="16" height="18" rx="3"/><path d="M8 7h8M8 11h3M8 16l2-2 3 3 3-5"/></g></symbol><symbol id="brohn-compare" viewBox="0 0 24 24"><g fill="none" stroke="currentColor" stroke-width="1.7" stroke-linecap="round" stroke-linejoin="round"><rect x="2" y="5" width="8" height="14" rx="2"/><rect x="14" y="5" width="8" height="14" rx="2"/><path d="M6 9v6M18 9v6"/></g></symbol><symbol id="brohn-spark" viewBox="0 0 24 24"><g fill="none" stroke="currentColor" stroke-width="1.7" stroke-linecap="round" stroke-linejoin="round"><path d="m12 2 2.5 7.5L22 12l-7.5 2.5L12 22l-2.5-7.5L2 12l7.5-2.5L12 2Z"/></g></symbol></svg>
